# xmcd
#
# Track frame offsets:
#	150
#	3870
#	16362
#	31134
#	46469
#	65977
#	83164
#	99185
#	105473
#	120318
#	136797
#	148771
#	155109
#
# Disc length: 2293 seconds
#
# Revision: 1
# Processed by: cddbd v1.5.2PL0 Copyright (c) Steve Scherf et al.
# Submitted via: audiograbber 1.83.01
#
DISCID=a008f30d
DTITLE=Andy Frasco and His U.N. - Just A Good Ole Time
DYEAR=2013
DGENRE=Party Blues
TTITLE0=Intro
TTITLE1=Something's Gotta Change
TTITLE2=Still Sleeping At My Mama's House
TTITLE3=What More Can I Say
TTITLE4=Heavyweight
TTITLE5=Everybody Needs Somebody
TTITLE6=You're Not Another Sarah On A Saturday Night (You Special Girl)
TTITLE7=Take 'em To Church
TTITLE8=Back To Lafayette
TTITLE9=Ain't Gonna Quit Cha Babe
TTITLE10=Give Me Love
TTITLE11=African Song (A Zembaway Ah Ya)
TTITLE12=Dance House Blues Away (demo)
EXTD=
EXTT0=
EXTT1=
EXTT2=
EXTT3=
EXTT4=
EXTT5=
EXTT6=
EXTT7=
EXTT8=
EXTT9=
EXTT10=
EXTT11=
EXTT12=
PLAYORDER=
